<svg width="16" height="15" viewBox="0 0 16 15" fill="none" xmlns="http://www.w3.org/2000/svg">
<path d="M4.22696 14.36L2.60696 13.424L11.859 0.895999L13.407 2.012L4.22696 14.36ZM0.500961 4.55C0.500961 3.59 0.836961 2.816 1.50896 2.228C2.18096 1.64 2.99696 1.346 3.95696 1.346C4.28096 1.346 4.65296 1.394 5.07296 1.49C5.78096 1.694 6.34496 2.072 6.76496 2.624C7.18496 3.176 7.39496 3.818 7.39496 4.55C7.39496 5.51 7.05896 6.284 6.38696 6.872C5.72696 7.448 4.91696 7.736 3.95696 7.736C2.99696 7.736 2.18096 7.442 1.50896 6.854C0.836961 6.254 0.500961 5.486 0.500961 4.55ZM2.94896 3.524C2.67296 3.812 2.53496 4.154 2.53496 4.55C2.53496 4.946 2.67296 5.294 2.94896 5.594C3.22496 5.882 3.56096 6.026 3.95696 6.026C4.37696 6.026 4.71296 5.888 4.96496 5.612C5.22896 5.324 5.36096 4.97 5.36096 4.55C5.36096 4.154 5.22296 3.812 4.94696 3.524C4.68296 3.236 4.35296 3.092 3.95696 3.092C3.56096 3.092 3.22496 3.236 2.94896 3.524ZM9.60896 13.19C8.93696 12.59 8.60096 11.816 8.60096 10.868C8.60096 9.92 8.93696 9.152 9.60896 8.564C10.293 7.976 11.109 7.682 12.057 7.682C12.381 7.682 12.753 7.73 13.173 7.826C13.881 8.03 14.445 8.408 14.865 8.96C15.285 9.5 15.495 10.136 15.495 10.868C15.495 11.804 15.159 12.572 14.487 13.172C13.815 13.772 13.005 14.072 12.057 14.072C11.097 14.072 10.281 13.778 9.60896 13.19ZM10.635 10.868C10.635 11.264 10.773 11.606 11.049 11.894C11.325 12.182 11.661 12.326 12.057 12.326C12.453 12.326 12.783 12.182 13.047 11.894C13.323 11.606 13.461 11.264 13.461 10.868C13.461 10.46 13.329 10.112 13.065 9.824C12.801 9.536 12.465 9.392 12.057 9.392C11.649 9.392 11.307 9.536 11.031 9.824C10.767 10.112 10.635 10.46 10.635 10.868Z" fill="white"/>
</svg>
