<svg width="32" height="30" viewBox="0 0 32 30" fill="none" xmlns="http://www.w3.org/2000/svg">
<path d="M4.4946 27.9144L7.95198 30L27.5438 2.48663L24.2401 0L4.4946 27.9144ZM0 8.14171C0 12.3128 3.18848 15.2406 7.37575 15.2406C11.563 15.2406 14.7131 12.3128 14.7131 8.14171C14.7131 3.93048 11.563 1.00268 7.37575 1.00268C3.18848 1.00268 0 3.93048 0 8.14171ZM4.34094 8.14171C4.34094 6.17647 5.7623 4.89305 7.37575 4.89305C8.9892 4.89305 10.3721 6.17647 10.3721 8.14171C10.3721 10.1471 9.02761 11.4305 7.37575 11.4305C5.80072 11.4305 4.34094 10.1471 4.34094 8.14171ZM17.2869 22.2193C17.2869 26.3904 20.4754 29.3583 24.6627 29.3583C28.8115 29.3583 32 26.3904 32 22.2193C32 18.008 28.8115 15.1203 24.6627 15.1203C20.4754 15.1203 17.2869 18.008 17.2869 22.2193ZM21.6278 22.2193C21.6278 20.2139 23.0492 18.9305 24.6627 18.9305C26.2377 18.9305 27.6591 20.2139 27.6591 22.2193C27.6591 24.1845 26.2761 25.4679 24.6627 25.4679C23.0876 25.4679 21.6278 24.1845 21.6278 22.2193Z" fill="#7209B7"/>
</svg>
